<?xml version="1.0" encoding="utf-8"?>
<!-- Generator: Adobe Illustrator 25.1.0, SVG Export Plug-In . SVG Version: 6.00 Build 0)  -->
<svg version="1.1" id="Capa_1" xmlns="http://www.w3.org/2000/svg" xmlns:xlink="http://www.w3.org/1999/xlink" x="0px" y="0px"
	 viewBox="0 0 512 512" style="enable-background:new 0 0 512 512;" xml:space="preserve">
<style type="text/css">
	.st0{fill:#CECECE;}
</style>
<g>
	<g>
		<path class="st0" d="M290.7,299.9h120.9c4.6,0,8.4-3.8,8.4-8.4c0-4.6-3.8-8.4-8.4-8.4H290.7c-4.6,0-8.4,3.8-8.4,8.4
			C282.3,296.1,286,299.9,290.7,299.9z"/>
		<path class="st0" d="M402,320.5H300.2c-8.5,0-15.5,6.9-15.5,15.5v76.3c0,8.5,6.9,15.5,15.5,15.5H402c8.5,0,15.5-6.9,15.5-15.5
			v-76.3C417.5,327.4,410.5,320.5,402,320.5z M402.2,412.3c0,0.1-0.1,0.2-0.2,0.2H300.2c-0.1,0-0.2-0.1-0.2-0.2v-76.3
			c0-0.1,0.1-0.2,0.2-0.2H402c0.1,0,0.2,0.1,0.2,0.2L402.2,412.3L402.2,412.3z"/>
		<path class="st0" d="M393.7,39.8c4.2,0,7.6-3.4,7.6-7.6V9.8c0-4.2-3.4-7.6-7.6-7.6c-4.2,0-7.6,3.4-7.6,7.6v22.4
			C386.1,36.4,389.5,39.8,393.7,39.8z"/>
		<path class="st0" d="M335.7,52.5c1.5,1.5,3.4,2.2,5.4,2.2c1.9,0,3.9-0.7,5.4-2.2c3-3,3-7.8,0-10.8l-15.9-15.9c-3-3-7.8-3-10.8,0
			c-3,3-3,7.8,0,10.8L335.7,52.5z"/>
		<path class="st0" d="M446.3,54.7c1.9,0,3.9-0.7,5.4-2.2l15.9-15.9c3-3,3-7.8,0-10.8c-3-3-7.8-3-10.8,0l-15.9,15.9
			c-3,3-3,7.8,0,10.8C442.4,54,444.4,54.7,446.3,54.7z"/>
		<path class="st0" d="M504.4,83.9H482c-4.2,0-7.6,3.4-7.6,7.6s3.4,7.6,7.6,7.6h22.4c4.2,0,7.6-3.4,7.6-7.6S508.6,83.9,504.4,83.9z"
			/>
		<path class="st0" d="M283,99.1h22.4c4.2,0,7.6-3.4,7.6-7.6s-3.4-7.6-7.6-7.6H283c-4.2,0-7.6,3.4-7.6,7.6S278.8,99.1,283,99.1z"/>
		<path class="st0" d="M82.9,185.3h120.9c4.6,0,8.4-3.8,8.4-8.4c0-4.6-3.8-8.4-8.4-8.4H82.9c-4.6,0-8.4,3.8-8.4,8.4
			C74.5,181.6,78.2,185.3,82.9,185.3z"/>
		<path class="st0" d="M82.9,223.5h120.9c4.6,0,8.4-3.8,8.4-8.4s-3.8-8.4-8.4-8.4H82.9c-4.6,0-8.4,3.8-8.4,8.4
			C74.5,219.7,78.2,223.5,82.9,223.5z"/>
		<path class="st0" d="M212.2,253.3c0-4.6-3.8-8.4-8.4-8.4H82.9c-4.6,0-8.4,3.8-8.4,8.4c0,4.6,3.8,8.4,8.4,8.4h120.9
			C208.4,261.7,212.2,257.9,212.2,253.3z"/>
		<path class="st0" d="M82.9,404.9h120.9c4.6,0,8.4-3.8,8.4-8.4c0-4.6-3.8-8.4-8.4-8.4H82.9c-4.6,0-8.4,3.8-8.4,8.4
			C74.5,401.1,78.2,404.9,82.9,404.9z"/>
		<path class="st0" d="M474.7,142.7h-9.4c0.2-2.3,0.3-4.6,0.3-6.9c0-14-4.1-27.4-11.5-38.9c-2.3-3.5-7-4.5-10.5-2.3
			c-3.5,2.3-4.5,7-2.3,10.5c9.9,15.3,11.3,34.7,6.4,47.8c-3.1,12.6-14.9,23.9-15.9,25c-0.1,0.2-0.3,0.3-0.4,0.5
			c-6.2,7.1-11.3,15.3-14.8,23.8h-46c-4-9.6-9.9-19-17.7-26.9c-10.4-10.6-16.1-24.7-16.1-39.5c0-31.1,25.3-56.7,56.7-56.7
			c0.7,0,1.5,0,2.2,0c7.8,0.3,15.3,2.2,22.3,5.6c3.8,1.8,8.3,0.3,10.2-3.5c1.8-3.8,0.3-8.3-3.5-10.2c-8.9-4.3-18.4-6.7-28.3-7.1
			c-36.7-1.4-67.7,24.9-73.7,59.7h-61.1c-5.5,0-10.6,2-14.5,5.4c-3.9-3.4-8.9-5.4-14.5-5.4H46.2c-7.9,0-14.4,6.4-14.4,14.4v4.8H19.8
			C8.9,142.7,0,151.5,0,162.4v205c0,4.2,3.4,7.6,7.6,7.6s7.6-3.4,7.6-7.6v-7.3c0.5,0,0.9,0.1,1.4,0.1h15.2c0,90-0.1,84.1,0.3,86.2
			c1.3,6.5,7.1,11.5,14.1,11.5h186.6c4.3,0,5.5,3.2,6.9,4.5v23c-5.1-3.2-11.2-5.1-17.4-5.1H19.8c-2.5,0-4.5-2-4.5-4.5v-72.8
			c0-4.2-3.4-7.6-7.6-7.6S0,398.7,0,402.9v72.8c0,10.9,8.9,19.8,19.8,19.8h202.4c6.1,0,11.9,3.3,15,8.6c4.5,7.7,15.5,7.6,20,0
			c3.1-5.3,8.9-8.6,15-8.6h202.4c10.9,0,19.8-8.9,19.8-19.8V162.4C494.4,151.5,485.6,142.7,474.7,142.7L474.7,142.7z M393.7,253.7
			c-11.4,0-20.7-9.3-20.7-20.7v-15.5h41.3v15.5C414.3,244.4,405.1,253.7,393.7,253.7z M261.7,138.8h60.1c0.4,10.3,3.2,20.7,7.8,29.7
			h-38.9c-4.6,0-8.4,3.8-8.4,8.4c0,4.6,3.8,8.4,8.4,8.4h50.8c6.4,6.7,10.7,12.7,14.5,21.3h-65.3c-4.6,0-8.4,3.8-8.4,8.4
			c0,4.6,3.8,8.4,8.4,8.4h67.1v9.5c0,4.1,0.7,8.1,2,11.8h-69.1c-4.6,0-8.4,3.8-8.4,8.4c0,4.6,3.8,8.4,8.4,8.4l81-0.3
			c6.1,4.7,13.7,7.5,22,7.5c19.8,0,35.9-16.1,35.9-35.9v-21.8c5.6-15.8,14.6-24,17.8-27.6v258.9H261.7c0,0,0,0,0,0
			c-2.3,0-4.9,0.5-6.8,1.1V145.6C254.8,141.8,257.9,138.8,261.7,138.8L261.7,138.8z M15.2,162.4c0-2.5,2-4.5,4.5-4.5h12.1v130.9
			H16.6c-0.5,0-0.9,0-1.4,0.1L15.2,162.4z M16.6,345c-0.8,0-1.4-0.6-1.4-1.4v-38.2c0-0.8,0.6-1.4,1.4-1.4h22.8h5.3V345h-5.3
			L16.6,345L16.6,345z M52.4,360.2h105.5c1.4,0,3-0.5,4.3-1.4c0,0,0,0,0,0l33.3-23.5c3.5-2.5,5.6-6.5,5.6-10.8s-2.1-8.3-5.6-10.8
			l-33.3-23.5c0,0,0,0,0,0c-1.1-0.8-2.5-1.3-4-1.3c-0.1,0-0.2,0-0.3,0c-13.1,0-99.4,0-110.8,0V150.3v-11.5h185.7
			c3.8,0,6.9,3.1,6.9,6.9v298.1c-2-0.6-4.5-1.1-6.8-1.1c0,0,0,0,0,0H47v-82.4L52.4,360.2z M150.3,345H60v-40.9h90.3V345z
			 M184.5,324.5l-19,13.4v-26.8L184.5,324.5z M479.2,475.7c0,2.5-2,4.5-4.5,4.5H272.2c-6.2,0-12.3,1.8-17.4,5.1v-23
			c1.4-1.3,2.5-4.5,6.9-4.5h186.6c7.9,0,14.4-6.4,14.4-14.4V157.9h12.1c2.5,0,4.5,2,4.5,4.5L479.2,475.7L479.2,475.7z"/>
	</g>
</g>
</svg>
