<?xml version="1.0" encoding="utf-8"?>
<!-- Generator: Adobe Illustrator 25.1.0, SVG Export Plug-In . SVG Version: 6.00 Build 0)  -->
<svg version="1.1" id="Layer_1" xmlns="http://www.w3.org/2000/svg" xmlns:xlink="http://www.w3.org/1999/xlink" x="0px" y="0px"
	 viewBox="0 0 1949.3 475.4" style="enable-background:new 0 0 1949.3 475.4;" xml:space="preserve">
<style type="text/css">
	.Arched_x0020_Green{fill:url(#SVGID_1_);stroke:#FFFFFF;stroke-width:0.25;stroke-miterlimit:1;}
	.st0{fill:url(#SVGID_2_);}
	.st1{fill:url(#SVGID_3_);}
	.st2{filter:url(#Adobe_OpacityMaskFilter);}
	.st3{filter:url(#Adobe_OpacityMaskFilter_1_);}
	.st4{mask:url(#SVGID_4_);fill:url(#SVGID_5_);}
	.st5{fill:url(#SVGID_6_);}
	.st6{filter:url(#Adobe_OpacityMaskFilter_2_);}
	.st7{filter:url(#Adobe_OpacityMaskFilter_3_);}
	.st8{mask:url(#SVGID_7_);fill:url(#SVGID_8_);}
	.st9{fill:url(#SVGID_9_);}
	.st10{fill:#CECECE;}
	.st11{fill:#BBB9B9;}
</style>
<linearGradient id="SVGID_1_" gradientUnits="userSpaceOnUse" x1="-685.684" y1="1412.6321" x2="-684.9769" y2="1411.9249">
	<stop  offset="0" style="stop-color:#1EAB4B"/>
	<stop  offset="0.9831" style="stop-color:#19361A"/>
</linearGradient>
<g>
	<g>
		<linearGradient id="SVGID_2_" gradientUnits="userSpaceOnUse" x1="161.4769" y1="412.5581" x2="152.6966" y2="39.5942">
			<stop  offset="0" style="stop-color:#D0E746"/>
			<stop  offset="1" style="stop-color:#3EB44A"/>
		</linearGradient>
		<path class="st0" d="M283.7,422.5c-33.9,19.6-98.2,16.5-98.3-62.4v-78.9h-78.9v-74.6h78.9v-78.9h56.2H260
			c0-74.6-57.5-81.6-92.4-65.6c-2,0.9-4,1.9-5.8,3L57.8,125.2c-12.5,7.2-20.3,20.6-20.3,35.2v167.1c0,14.5,7.8,27.9,20.3,35.2
			l144.7,83.5c12.5,7.2,28.1,7.2,40.6,0L283.7,422.5L283.7,422.5z"/>
		<linearGradient id="SVGID_3_" gradientUnits="userSpaceOnUse" x1="285.0949" y1="99.6142" x2="284.5845" y2="426.7205">
			<stop  offset="0" style="stop-color:#D1E146"/>
			<stop  offset="1" style="stop-color:#3EB44A"/>
		</linearGradient>
		<path class="st1" d="M387.7,125.2L243,41.6c-12.5-7.2-28.1-7.2-40.6,0l-35.6,20.5l-5.1,2.9c1.9-1.1,3.8-2.1,5.8-3
			c34.9-16,92.4-9.1,92.4,65.6v78.9H339v74.6H260v78.9h-52.9h-21.7c0.1,79,64.4,82.1,98.3,62.4l0,0.1l104-60
			c12.5-7.2,20.3-20.6,20.3-35.2V160.3C408.1,145.8,400.3,132.4,387.7,125.2z"/>
		<defs>
			<filter id="Adobe_OpacityMaskFilter" filterUnits="userSpaceOnUse" x="167.7" y="55" width="92.4" height="72.6">
				<feFlood  style="flood-color:white;flood-opacity:1" result="back"/>
				<feBlend  in="SourceGraphic" in2="back" mode="normal"/>
			</filter>
		</defs>
		<mask maskUnits="userSpaceOnUse" x="167.7" y="55" width="92.4" height="72.6" id="SVGID_4_">
			<g class="st2">
				<defs>
					<filter id="Adobe_OpacityMaskFilter_1_" filterUnits="userSpaceOnUse" x="167.7" y="55" width="92.4" height="72.6">
						<feFlood  style="flood-color:white;flood-opacity:1" result="back"/>
						<feBlend  in="SourceGraphic" in2="back" mode="normal"/>
					</filter>
				</defs>
				<mask maskUnits="userSpaceOnUse" x="167.7" y="55" width="92.4" height="72.6" id="SVGID_4_">
				</mask>
				<linearGradient id="SVGID_5_" gradientUnits="userSpaceOnUse" x1="98.3998" y1="91.3251" x2="235.922" y2="91.3251">
					<stop  offset="0" style="stop-color:#FFFFFF"/>
					<stop  offset="1" style="stop-color:#808080"/>
				</linearGradient>
				<path class="st4" d="M260,127.6h-18.4c-0.4-22.5-8.7-71.7-74-65.6C202.6,46.1,260,53,260,127.6z"/>
			</g>
		</mask>
		<linearGradient id="SVGID_6_" gradientUnits="userSpaceOnUse" x1="98.3998" y1="91.3251" x2="235.922" y2="91.3251">
			<stop  offset="0" style="stop-color:#82C341"/>
			<stop  offset="1" style="stop-color:#12AA4B"/>
		</linearGradient>
		<path class="st5" d="M260,127.6h-18.4c-0.4-22.5-8.7-71.7-74-65.6C202.6,46.1,260,53,260,127.6z"/>
		<defs>
			<filter id="Adobe_OpacityMaskFilter_2_" filterUnits="userSpaceOnUse" x="185.4" y="360.1" width="98.3" height="72.6">
				<feFlood  style="flood-color:white;flood-opacity:1" result="back"/>
				<feBlend  in="SourceGraphic" in2="back" mode="normal"/>
			</filter>
		</defs>
		<mask maskUnits="userSpaceOnUse" x="185.4" y="360.1" width="98.3" height="72.6" id="SVGID_7_">
			<g class="st6">
				<defs>
					<filter id="Adobe_OpacityMaskFilter_3_" filterUnits="userSpaceOnUse" x="185.4" y="360.1" width="98.3" height="72.6">
						<feFlood  style="flood-color:white;flood-opacity:1" result="back"/>
						<feBlend  in="SourceGraphic" in2="back" mode="normal"/>
					</filter>
				</defs>
				<mask maskUnits="userSpaceOnUse" x="185.4" y="360.1" width="98.3" height="72.6" id="SVGID_7_">
				</mask>
				<linearGradient id="SVGID_8_" gradientUnits="userSpaceOnUse" x1="127.6694" y1="396.3543" x2="129.4364" y2="396.3543">
					<stop  offset="0" style="stop-color:#FFFFFF"/>
					<stop  offset="1" style="stop-color:#808080"/>
				</linearGradient>
				<path class="st8" d="M283.7,422.5c-33.9,19.6-98.2,16.5-98.3-62.4h21.7C208.2,384,218.7,429.8,283.7,422.5z"/>
			</g>
		</mask>
		<linearGradient id="SVGID_9_" gradientUnits="userSpaceOnUse" x1="127.6694" y1="396.3543" x2="129.4364" y2="396.3543">
			<stop  offset="0" style="stop-color:#82C341"/>
			<stop  offset="1" style="stop-color:#12AA4B"/>
		</linearGradient>
		<path class="st9" d="M283.7,422.5c-33.9,19.6-98.2,16.5-98.3-62.4h21.7C208.2,384,218.7,429.8,283.7,422.5z"/>
	</g>
</g>
<g>
	<path class="st10" d="M510.2,215.6v54.8h-18.5V130.3h51.7c15.3,0,27.3,3.9,36,11.7c8.7,7.8,13,18.2,13,31.1
		c0,13.6-4.2,24.1-12.7,31.4c-8.5,7.3-20.7,11-36.5,11H510.2z M510.2,200.5h33.2c9.9,0,17.4-2.3,22.7-7c5.3-4.7,7.9-11.4,7.9-20.2
		c0-8.4-2.6-15-7.9-20c-5.3-5-12.5-7.6-21.6-7.8h-34.2V200.5z"/>
	<path class="st10" d="M731.5,270.4h-18.6v-64.7h-70.6v64.7h-18.5V130.3h18.5v60.2h70.6v-60.2h18.6V270.4z"/>
	<path class="st10" d="M851.3,233.7h-58.7l-13.2,36.7h-19l53.5-140.1H830l53.6,140.1h-19L851.3,233.7z M798.2,218.6h47.6l-23.9-65.5
		L798.2,218.6z"/>
	<path class="st10" d="M961.7,213.7h-32.9v56.7h-18.6V130.3h46.4c15.8,0,27.9,3.6,36.4,10.8c8.5,7.2,12.7,17.6,12.7,31.4
		c0,8.7-2.4,16.3-7.1,22.8c-4.7,6.5-11.3,11.3-19.7,14.5l32.9,59.5v1.2h-19.8L961.7,213.7z M928.8,198.6h28.4
		c9.2,0,16.5-2.4,21.9-7.1c5.4-4.8,8.1-11.1,8.1-19.1c0-8.7-2.6-15.3-7.7-19.9c-5.2-4.6-12.6-7-22.4-7h-28.3V198.6z"/>
	<path class="st10" d="M1063.4,130.3l45.8,114.3l45.8-114.3h24v140.1h-18.5v-54.5l1.7-58.9l-46,113.4H1102l-45.9-113.1l1.8,58.6
		v54.5h-18.5V130.3H1063.4z"/>
	<path class="st10" d="M1296.7,233.7h-58.7l-13.2,36.7h-19l53.5-140.1h16.2l53.6,140.1h-19L1296.7,233.7z M1243.6,218.6h47.6
		l-23.9-65.5L1243.6,218.6z"/>
	<path class="st10" d="M1505.4,145.4h-45v125H1442v-125h-44.9v-15.1h108.3V145.4z"/>
	<path class="st10" d="M1613.2,205.7h-60.7v49.6h70.5v15.1h-89V130.3h88v15.1h-69.6v45.1h60.7V205.7z"/>
	<path class="st10" d="M1756.9,226c-1.7,14.8-7.2,26.2-16.4,34.3c-9.2,8-21.4,12.1-36.7,12.1c-16.5,0-29.8-5.9-39.8-17.8
		c-10-11.9-15-27.7-15-47.6v-13.5c0-13,2.3-24.5,7-34.3c4.6-9.9,11.2-17.5,19.8-22.8s18.4-7.9,29.6-7.9c14.9,0,26.8,4.2,35.8,12.5
		c9,8.3,14.2,19.8,15.7,34.5h-18.6c-1.6-11.2-5.1-19.3-10.4-24.3c-5.4-5-12.8-7.5-22.5-7.5c-11.8,0-21.1,4.4-27.8,13.1
		c-6.7,8.7-10.1,21.1-10.1,37.3v13.6c0,15.2,3.2,27.3,9.5,36.3c6.3,9,15.2,13.5,26.6,13.5c10.3,0,18.1-2.3,23.6-7
		c5.5-4.6,9.1-12.7,10.9-24.3H1756.9z"/>
	<path class="st10" d="M1897.7,270.4h-18.6v-64.7h-70.6v64.7H1790V130.3h18.5v60.2h70.6v-60.2h18.6V270.4z"/>
</g>
<g>
	<path class="st11" d="M491.2,359.7v-54.2h15.3c4.7,0,8.9,1,12.5,3.1c3.6,2.1,6.4,5.1,8.4,8.9c2,3.8,3,8.3,3,13.3v3.5
		c0,5.1-1,9.6-3,13.4c-2,3.8-4.8,6.8-8.5,8.9c-3.7,2.1-7.9,3.1-12.8,3.2H491.2z M498.4,311.3v42.5h7.5c5.5,0,9.8-1.7,12.9-5.1
		c3.1-3.4,4.6-8.3,4.6-14.6v-3.2c0-6.2-1.4-11-4.3-14.4c-2.9-3.4-7-5.1-12.3-5.2H498.4z"/>
	<path class="st11" d="M556.5,359.7h-7.2v-54.2h7.2V359.7z"/>
	<path class="st11" d="M617.3,352.6c-1.8,2.6-4.4,4.6-7.7,5.9c-3.3,1.3-7.1,2-11.5,2c-4.4,0-8.3-1-11.8-3.1c-3.4-2.1-6.1-5-8-8.8
		c-1.9-3.8-2.8-8.3-2.9-13.3v-4.7c0-8.2,1.9-14.5,5.7-19c3.8-4.5,9.2-6.7,16.1-6.7c5.7,0,10.2,1.4,13.7,4.3c3.5,2.9,5.6,7,6.3,12.3
		h-7.2c-1.3-7.2-5.6-10.8-12.8-10.8c-4.8,0-8.4,1.7-10.9,5.1c-2.5,3.4-3.7,8.2-3.7,14.6v4.4c0,6.1,1.4,10.9,4.2,14.5
		c2.8,3.6,6.5,5.4,11.3,5.4c2.7,0,5-0.3,7-0.9s3.7-1.6,5-3v-12.1h-12.5v-5.8h19.7V352.6z"/>
	<path class="st11" d="M644.5,359.7h-7.2v-54.2h7.2V359.7z"/>
	<path class="st11" d="M702.7,311.3h-17.4v48.4h-7.1v-48.4h-17.4v-5.8h41.9V311.3z"/>
	<path class="st11" d="M745.3,345.5h-22.7l-5.1,14.2h-7.4l20.7-54.2h6.3l20.7,54.2h-7.3L745.3,345.5z M724.8,339.6h18.4l-9.2-25.4
		L724.8,339.6z"/>
	<path class="st11" d="M780,353.8h25.7v5.8h-32.9v-54.2h7.2V353.8z"/>
	<path class="st11" d="M863.9,335.5c-6.1-1.8-10.6-3.9-13.4-6.5c-2.8-2.6-4.2-5.7-4.2-9.5c0-4.3,1.7-7.8,5.1-10.6
		c3.4-2.8,7.9-4.2,13.3-4.2c3.7,0,7,0.7,10,2.2c2.9,1.4,5.2,3.4,6.8,6c1.6,2.5,2.4,5.3,2.4,8.3h-7.2c0-3.3-1-5.9-3.1-7.8
		c-2.1-1.9-5-2.8-8.8-2.8c-3.5,0-6.3,0.8-8.2,2.3s-3,3.7-3,6.5c0,2.2,0.9,4.1,2.8,5.6c1.9,1.5,5.1,2.9,9.6,4.2
		c4.5,1.3,8,2.7,10.6,4.2c2.5,1.5,4.4,3.3,5.7,5.3c1.2,2,1.8,4.4,1.8,7.2c0,4.4-1.7,7.9-5.1,10.6c-3.4,2.6-8,4-13.7,4
		c-3.7,0-7.2-0.7-10.4-2.1s-5.7-3.4-7.5-5.9c-1.8-2.5-2.6-5.3-2.6-8.5h7.2c0,3.3,1.2,5.9,3.6,7.8c2.4,1.9,5.7,2.8,9.7,2.8
		c3.8,0,6.7-0.8,8.7-2.3c2-1.5,3-3.6,3-6.3s-0.9-4.7-2.8-6.2C872.2,338.4,868.8,336.9,863.9,335.5z"/>
	<path class="st11" d="M942.5,334.3c0,5.3-0.9,9.9-2.7,13.9c-1.8,4-4.3,7-7.6,9.1s-7.1,3.1-11.5,3.1c-4.3,0-8.1-1-11.4-3.1
		s-5.9-5.1-7.7-9c-1.8-3.9-2.8-8.4-2.8-13.5v-3.9c0-5.2,0.9-9.8,2.7-13.8c1.8-4,4.4-7.1,7.7-9.2c3.3-2.1,7.1-3.2,11.4-3.2
		c4.3,0,8.2,1,11.5,3.1c3.3,2.1,5.9,5.1,7.7,9.1c1.8,4,2.7,8.6,2.7,13.9V334.3z M935.4,330.8c0-6.4-1.3-11.4-3.9-14.8
		c-2.6-3.4-6.2-5.2-10.8-5.2c-4.5,0-8.1,1.7-10.7,5.2c-2.6,3.4-3.9,8.2-4,14.3v4c0,6.2,1.3,11.1,3.9,14.7c2.6,3.6,6.2,5.3,10.8,5.3
		c4.6,0,8.2-1.7,10.7-5s3.8-8.2,3.9-14.5V330.8z"/>
	<path class="st11" d="M968.1,353.8h25.7v5.8h-32.9v-54.2h7.2V353.8z"/>
	<path class="st11" d="M1045.7,305.5v36.9c0,5.1-1.6,9.3-4.8,12.6c-3.2,3.3-7.5,5.1-13,5.5l-1.9,0.1c-5.9,0-10.7-1.6-14.2-4.8
		c-3.5-3.2-5.3-7.6-5.4-13.2v-36.9h7.1v36.7c0,3.9,1.1,7,3.2,9.1c2.2,2.2,5.2,3.3,9.2,3.3c4,0,7.1-1.1,9.3-3.2
		c2.1-2.2,3.2-5.2,3.2-9.1v-36.8H1045.7z"/>
	<path class="st11" d="M1102.1,311.3h-17.4v48.4h-7.1v-48.4h-17.4v-5.8h41.9V311.3z"/>
	<path class="st11" d="M1125.4,359.7h-7.2v-54.2h7.2V359.7z"/>
	<path class="st11" d="M1187.8,334.3c0,5.3-0.9,9.9-2.7,13.9c-1.8,4-4.3,7-7.6,9.1s-7.1,3.1-11.5,3.1c-4.3,0-8.1-1-11.4-3.1
		s-5.9-5.1-7.7-9c-1.8-3.9-2.8-8.4-2.8-13.5v-3.9c0-5.2,0.9-9.8,2.7-13.8c1.8-4,4.4-7.1,7.7-9.2c3.3-2.1,7.1-3.2,11.4-3.2
		c4.3,0,8.2,1,11.5,3.1c3.3,2.1,5.9,5.1,7.7,9.1c1.8,4,2.7,8.6,2.7,13.9V334.3z M1180.7,330.8c0-6.4-1.3-11.4-3.9-14.8
		c-2.6-3.4-6.2-5.2-10.8-5.2c-4.5,0-8.1,1.7-10.7,5.2c-2.6,3.4-3.9,8.2-4,14.3v4c0,6.2,1.3,11.1,3.9,14.7c2.6,3.6,6.2,5.3,10.8,5.3
		c4.6,0,8.2-1.7,10.7-5s3.8-8.2,3.9-14.5V330.8z"/>
	<path class="st11" d="M1247.9,359.7h-7.2l-27.3-41.8v41.8h-7.2v-54.2h7.2l27.4,42v-42h7.1V359.7z"/>
	<path class="st11" d="M1284.2,335.5c-6.1-1.8-10.6-3.9-13.4-6.5c-2.8-2.6-4.2-5.7-4.2-9.5c0-4.3,1.7-7.8,5.1-10.6
		c3.4-2.8,7.9-4.2,13.3-4.2c3.7,0,7,0.7,10,2.2c2.9,1.4,5.2,3.4,6.8,6c1.6,2.5,2.4,5.3,2.4,8.3h-7.2c0-3.3-1-5.9-3.1-7.8
		c-2.1-1.9-5-2.8-8.8-2.8c-3.5,0-6.3,0.8-8.2,2.3s-3,3.7-3,6.5c0,2.2,0.9,4.1,2.8,5.6c1.9,1.5,5.1,2.9,9.6,4.2
		c4.5,1.3,8,2.7,10.6,4.2c2.5,1.5,4.4,3.3,5.7,5.3c1.2,2,1.8,4.4,1.8,7.2c0,4.4-1.7,7.9-5.1,10.6c-3.4,2.6-8,4-13.7,4
		c-3.7,0-7.2-0.7-10.4-2.1s-5.7-3.4-7.5-5.9c-1.8-2.5-2.6-5.3-2.6-8.5h7.2c0,3.3,1.2,5.9,3.6,7.8c2.4,1.9,5.7,2.8,9.7,2.8
		c3.8,0,6.7-0.8,8.7-2.3c2-1.5,3-3.6,3-6.3s-0.9-4.7-2.8-6.2C1292.4,338.4,1289.1,336.9,1284.2,335.5z"/>
</g>
</svg>
