<?xml version="1.0" encoding="utf-8"?>
<!-- Generator: Adobe Illustrator 25.1.0, SVG Export Plug-In . SVG Version: 6.00 Build 0)  -->
<svg version="1.1" id="Capa_1" xmlns="http://www.w3.org/2000/svg" xmlns:xlink="http://www.w3.org/1999/xlink" x="0px" y="0px"
	 viewBox="0 0 512 512" style="enable-background:new 0 0 512 512;" xml:space="preserve">
<style type="text/css">
	.st0{fill:#CECECE;}
</style>
<g>
	<g>
		<path class="st0" d="M276.9,139.9c4.1,0,7.5-3.4,7.5-7.5s-3.4-7.5-7.5-7.5H56.5c-5.6,0-10.1,4.5-10.1,10.1v255.9
			c0,4.1,3.4,7.5,7.5,7.5h60.9c4.2,0,7.6-3.5,7.5-7.7c-0.1-4.1-3.7-7.3-7.8-7.3H61.4V139.9H276.9z"/>
		<path class="st0" d="M147.1,383.4c-4.1,0-7.7,3.2-7.8,7.3c-0.1,4.3,3.3,7.7,7.5,7.7h311.4c4.1,0,7.5-3.4,7.5-7.5V135
			c0-5.6-4.5-10.1-10.1-10.1H388c-4.1,0-7.5,3.4-7.5,7.5s3.4,7.5,7.5,7.5h62.7v243.5H147.1z"/>
		<path class="st0" d="M500.4,413.4h-4.7V135c0-22.1-18-40.2-40.2-40.2H388c-4.2,0-7.5,3.4-7.5,7.5c0,4.1,3.4,7.5,7.5,7.5h67.6
			c13.9,0,25.1,11.3,25.1,25.1v278.5h-84.3c-4.2,0-7.5,3.4-7.5,7.5c0,4.1,3.4,7.5,7.5,7.5H497v3.6c0,12.5-10.1,22.6-22.6,22.6H37.6
			C25.2,454.6,15,444.5,15,432v-3.6h349.4c4.2,0,7.5-3.4,7.5-7.5c0-4.1-3.4-7.5-7.5-7.5H31.3V135c0-13.9,11.3-25.1,25.1-25.1h220.4
			c4.2,0,7.5-3.4,7.5-7.5c0-4.1-3.4-7.5-7.5-7.5H56.5c-22.1,0-40.2,18-40.2,40.2v278.5h-4.7C5.2,413.4,0,418.6,0,425v7
			c0,20.8,16.9,37.6,37.6,37.6h436.7c20.8,0,37.6-16.9,37.6-37.6v-7C512,418.6,506.8,413.4,500.4,413.4L500.4,413.4z"/>
		<path class="st0" d="M261.8,174.3c-7.3,0-13.3,6-13.3,13.3v14.5h-37.7c-7.3,0-13.3,6-13.3,13.3v18.7h-37.7
			c-7.3,0-13.3,6-13.3,13.3v95.9h-32.2v-40.1h8.2c4.2,0,7.5-3.4,7.5-7.5c0-4.1-3.4-7.5-7.5-7.5h-8.2v-57.9h8.2
			c4.2,0,7.5-3.4,7.5-7.5s-3.4-7.5-7.5-7.5h-8.2v-43.7h8.2c4.2,0,7.5-3.4,7.5-7.5c0-4.1-3.4-7.5-7.5-7.5h-15.7
			c-4.2,0-7.5,3.4-7.5,7.5v179.3h-2.3c-4.2,0-7.5,3.4-7.5,7.5c0,4.1,3.4,7.5,7.5,7.5h317.9c4.2,0,7.5-3.4,7.5-7.5
			c0-4.1-3.4-7.5-7.5-7.5h-49.4V201.7c0-4.1-3.4-7.5-7.5-7.5c-4.2,0-7.5,3.4-7.5,7.5v141.7h-35.9V57.4h35.9v112.2
			c0,4.1,3.4,7.5,7.5,7.5c4.2,0,7.5-3.4,7.5-7.5v-114c0-7.3-6-13.3-13.3-13.3h-39.4c-7.3,0-13.3,6-13.3,13.3v118.6L261.8,174.3z
			 M161.6,249.2h35.9v94.2h-35.9V249.2z M212.5,217.2h35.9v126.2h-35.9V217.2z M263.5,343.3v-154h35.9v154H263.5z"/>
	</g>
</g>
</svg>
