<?xml version="1.0" encoding="utf-8"?>
<!-- Generator: Adobe Illustrator 25.1.0, SVG Export Plug-In . SVG Version: 6.00 Build 0)  -->
<svg version="1.1" id="Capa_1" xmlns="http://www.w3.org/2000/svg" xmlns:xlink="http://www.w3.org/1999/xlink" x="0px" y="0px"
	 viewBox="0 0 512 512" style="enable-background:new 0 0 512 512;" xml:space="preserve">
<style type="text/css">
	.st0{fill:#CECECE;}
</style>
<g>
	<g>
		<path class="st0" d="M285.5,180.1c12.6,0,22.9-10.3,22.9-22.9s-10.3-22.9-22.9-22.9h-20.1c-12.6,0-22.9,10.3-22.9,22.9
			s10.3,22.9,22.9,22.9H285.5z M257.5,157.2c0-4.3,3.5-7.9,7.9-7.9h20.1c4.3,0,7.9,3.5,7.9,7.9c0,4.3-3.5,7.9-7.9,7.9h-20.1
			C261,165.1,257.5,161.6,257.5,157.2z"/>
		<path class="st0" d="M187,419.6c22.2,9.3,45.5,14,68.9,14c22.7,0,45.3-4.4,66.9-13.2c43.9-17.9,78.2-51.8,96.6-95.5
			c18.4-43.7,18.7-91.9,0.8-135.9C385,102.3,287.8,57.8,199.1,87.8c-3.9,1.3-6,5.6-4.7,9.5c1.3,3.9,5.6,6,9.5,4.7
			c79.8-27,167,11.8,200.8,88.5h-37.2c-4.1,0-7.5,3.4-7.5,7.5s3.4,7.5,7.5,7.5h42.9c12.2,37.2,10.6,77.1-4.7,113.5
			c-4.7,11.1-10.5,21.5-17.3,31.1c0,0,0,0-0.1,0.1c-6.5,9.1-16.4,10-23.4,7.7c-7.1-2.3-14.8-8.8-14.8-20.1v-48.6
			c0-19.7-16-35.7-35.7-35.7c-13.2,0-23.9-10.7-23.9-23.9s10.7-23.9,23.9-23.9h20c4.1,0,7.5-3.4,7.5-7.5s-3.4-7.5-7.5-7.5h-20
			c-21.5,0-38.9,17.5-38.9,38.9s17.5,38.9,38.9,38.9c11.4,0,20.7,9.3,20.7,20.7v48.6c0,16,9.9,29.5,25.2,34.4c2.5,0.8,5,1.3,7.5,1.6
			c-14.5,13.8-31.6,24.9-50.7,32.7c-24.5,10-50.6,13.8-76.2,11.4V391c0-1.5,0.6-2.8,1.6-3.9l35.8-35.8c4.7-4.7,7.3-10.9,7.3-17.5
			v-24.4c0-9.5-6.4-17.7-15.7-19.9l-81.7-19.7c-6.1-1.5-12.5-0.1-17.4,3.8c-5,3.9-7.8,9.8-7.8,16.1v50.7c0,6.6,2.6,12.8,7.3,17.5
			l20.1,20.1c1,1,1.6,2.4,1.6,3.9v23.5c-32.7-14-59.3-37.7-76.7-68.1c0.2,0,0.4-0.1,0.6-0.1c10.1-2,16.8-10.3,16.8-20.5v-18.4
			c0-14.9,8-28.8,20.9-36.3l59.5-34.5c12.6-7.3,20.4-20.8,20.4-35.3c0-14.2-7.5-27.6-19.7-34.9l-33.2-20.1c-8.5-5.1-17.8-7.5-27-7.4
			c6.8-5.5,14.1-10.5,21.9-14.9c3.6-2,4.9-6.6,2.8-10.2c-2-3.6-6.6-4.9-10.2-2.8c-37.1,21.1-65.4,55-79.6,95.5
			c-14.3,40.9-13.2,85.5,3.1,125.6C109.4,366.8,143.3,401.2,187,419.6L187,419.6z M180.9,347.4c-1.8-1.8-2.9-4.3-2.9-6.9v-50.7
			c0-2.3,1.3-3.7,2.1-4.3c0.8-0.6,2.4-1.6,4.7-1l81.7,19.7c2.5,0.6,4.2,2.8,4.2,5.3v24.4c0,2.6-1,5.1-2.9,6.9L232,376.6
			c-3.9,3.9-6,9-6,14.5v24.7c-6.4-1.2-12.8-2.8-19.1-4.8v-29.1c0-5.5-2.1-10.6-6-14.5L180.9,347.4z M125.1,159.7
			c0.1-0.1,0.1-0.1,0.2-0.2c11.1-15,31.6-19.1,47.5-9.5l33.2,20.1c7.7,4.6,12.4,13.1,12.4,22.1c0,9.2-4.9,17.7-12.9,22.3L146,249
			c-17.5,10.1-28.4,29-28.4,49.3v18.4c0,4.5-3.7,5.6-4.8,5.8c-1.1,0.2-4.9,0.6-6.6-3.5c0,0,0-0.1,0-0.1c-0.2-0.5-0.5-1.1-0.7-1.6
			C83.6,263.6,92.6,204,125.1,159.7L125.1,159.7z"/>
		<path class="st0" d="M512,256c0-56-24.9-108.7-70.2-149.1c1.5-3.5,2.3-7.3,2.3-11.2c0-15.7-12.8-28.4-28.4-28.4
			c-4,0-7.8,0.8-11.2,2.3C364.1,24.6,311.6,0,256,0c-55.6,0-108.2,24.6-148.5,69.5c-3.4-1.5-7.2-2.3-11.2-2.3
			c-15.7,0-28.4,12.8-28.4,28.4c0,4,0.8,7.8,2.3,11.2C24.9,147.3,0,200.1,0,256c0,56,24.9,108.7,70.2,149.1
			c-1.5,3.5-2.3,7.3-2.3,11.2c0,15.7,12.8,28.4,28.4,28.4c4,0,7.8-0.8,11.2-2.3C147.8,487.4,200.4,512,256,512
			c55.6,0,108.2-24.6,148.5-69.5c3.4,1.5,7.2,2.3,11.2,2.3c15.7,0,28.4-12.8,28.4-28.4c0-4-0.8-7.8-2.3-11.2
			C487.1,364.7,512,312,512,256z M497,256c0,45.8-18.2,89.4-51.7,124.8c18-38,27.5-80.7,27.5-124.8c0-44.1-9.4-86.8-27.5-124.8
			C478.8,166.6,497,210.2,497,256z M429.1,95.6c0,7.4-6,13.4-13.4,13.4s-13.4-6-13.4-13.4s6-13.4,13.4-13.4
			C423.1,82.2,429.1,88.2,429.1,95.6z M380.8,66.7c-38-18-80.7-27.5-124.8-27.5c-44.1,0-86.8,9.4-124.8,27.5
			C166.6,33.2,210.2,15,256,15C301.8,15,345.4,33.2,380.8,66.7z M96.3,82.2c7.4,0,13.4,6,13.4,13.4s-6,13.4-13.4,13.4
			c-7.4,0-13.4-6-13.4-13.4S88.9,82.2,96.3,82.2z M15,256c0-45.8,18.2-89.4,51.7-124.8C49.3,167.8,39.9,209,39.3,251.5
			c-0.1,4.1,3.2,7.5,7.4,7.6c0,0,0.1,0,0.1,0c4.1,0,7.4-3.3,7.5-7.4c0.7-46.2,12.3-90.7,33.6-129c2.7,0.8,5.5,1.3,8.4,1.3
			c15.7,0,28.4-12.8,28.4-28.4c0-2.8-0.4-5.6-1.2-8.2c39.4-21.7,85-33.2,132.4-33.2c47.4,0,93.1,11.5,132.4,33.2
			c-0.8,2.6-1.2,5.3-1.2,8.2c0,15.7,12.8,28.4,28.4,28.4c2.9,0,5.8-0.4,8.4-1.3c22,39.5,33.6,85.5,33.6,133.2
			c0,47.8-11.6,93.7-33.6,133.2c-2.7-0.8-5.5-1.3-8.4-1.3c-15.7,0-28.4,12.8-28.4,28.4c0,2.8,0.4,5.6,1.2,8.2
			c-39.4,21.7-85,33.2-132.4,33.2c-47.4,0-93.1-11.5-132.4-33.2c0.8-2.6,1.2-5.3,1.2-8.2c0-15.7-12.8-28.4-28.4-28.4
			c-2.9,0-5.8,0.4-8.4,1.3c-17.6-31.6-28.7-68-32.3-105.6c-0.4-4.1-4.1-7.2-8.2-6.8c-4.1,0.4-7.1,4.1-6.8,8.2
			c3.2,33.6,12.2,66.4,26.1,95.9C33.2,345.4,15,301.8,15,256z M82.9,416.4c0-7.4,6-13.4,13.4-13.4s13.4,6,13.4,13.4
			s-6,13.4-13.4,13.4C88.9,429.8,82.9,423.8,82.9,416.4z M131.2,445.3c38,18,80.7,27.4,124.8,27.4c44.1,0,86.8-9.4,124.8-27.5
			C345.4,478.8,301.8,497,256,497C210.2,497,166.6,478.8,131.2,445.3L131.2,445.3z M415.7,429.8c-7.4,0-13.4-6-13.4-13.4
			s6-13.4,13.4-13.4c7.4,0,13.4,6,13.4,13.4S423.1,429.8,415.7,429.8z"/>
	</g>
</g>
</svg>
